<svg width="18" height="187" viewBox="0 0 18 187" fill="none" xmlns="http://www.w3.org/2000/svg">
<g id="framered">
<g id="down" clip-path="url(#clip0)">
<g id="Group">
<path id="Vector" d="M13.6465 184.786C13.4236 185.024 13.1163 185.171 12.7759 185.171L4.46467 185.171C4.13818 185.171 3.82474 185.033 3.59402 184.786C3.3633 184.54 3.23357 184.206 3.23358 183.857L3.23362 178.634L2.00209 178.633C1.32212 178.633 0.771004 178.045 0.77101 177.32L0.771202 154.219C0.771641 153.858 0.920963 153.509 1.15648 153.264L2.46463 151.944L2.46485 127.336C2.46442 126.661 2.94196 126.105 3.55795 126.031L3.55853 5.63893C3.5581 4.19581 4.08485 2.83975 5.04127 1.81896C5.99768 0.798164 7.26927 0.235725 8.62183 0.235725C11.414 0.235725 13.685 2.65961 13.685 5.63893L13.6845 126.031C13.96 126.064 14.2186 126.196 14.4167 126.408C14.6473 126.654 14.777 126.988 14.777 127.337L14.7774 139.644C15.0769 139.515 15.4182 139.514 15.7264 139.656C16.1778 139.863 16.4709 140.337 16.4709 140.862L16.4701 177.32C16.4705 178.045 15.919 178.634 15.239 178.634L14.0079 178.634L14.0074 183.857C14.0074 184.22 13.8689 184.549 13.6465 184.786ZM5.69578 182.544L11.5439 182.544V178.635L5.69582 178.635L5.69578 182.544ZM3.23365 176.007L14.007 176.006L14.0073 143.924L4.54155 153.476C4.50933 153.508 4.47538 153.539 4.44099 153.567L3.23383 154.786L3.23365 176.007ZM4.92684 149.46L12.3143 142.005L12.3144 128.651L4.92702 128.651L4.92698 131.985H5.33706C6.01704 131.985 6.56815 132.573 6.56858 133.299C6.56857 134.025 6.01745 134.613 5.33704 134.613H4.9261L4.92684 149.46ZM6.02014 125.965L11.2222 125.965L11.2229 5.63893C11.2229 4.10874 10.0557 2.86377 8.6218 2.86377C7.92702 2.86377 7.27403 3.15199 6.78255 3.6764C6.29107 4.20081 6.02072 4.89735 6.02072 5.63893L6.02014 125.965Z" fill="black"/>
</g>
</g>
<g id="up" clip-path="url(#clip1)">
<rect width="11.2551" height="126.098" transform="translate(2.99266 0.0015564)" fill="#EB212E"/>
<g id="Group_2">
<path id="Vector_2" d="M13.6465 184.786C13.4236 185.024 13.1163 185.171 12.7759 185.171H4.46468C4.13819 185.171 3.82475 185.032 3.59403 184.786C3.36331 184.54 3.23359 184.206 3.23359 183.858L3.23364 178.633H2.00211C1.32214 178.633 0.771021 178.045 0.771021 177.319L0.771218 154.218C0.771659 153.857 0.920977 153.509 1.15649 153.264L2.46465 151.945L2.46486 127.337C2.46443 126.66 2.94198 126.105 3.55796 126.031L3.55854 5.63878C3.55812 4.1956 4.08487 2.83927 5.04128 1.81876C5.9977 0.798259 7.26928 0.23574 8.62184 0.236191C11.414 0.236164 13.685 2.65942 13.685 5.63868L13.6845 126.032C13.96 126.065 14.2186 126.197 14.4167 126.408C14.6473 126.654 14.7771 126.988 14.7771 127.337L14.7774 139.644C15.0769 139.515 15.4182 139.514 15.7264 139.655C16.1779 139.863 16.4709 140.338 16.4709 140.862L16.4701 177.32C16.4705 178.045 15.919 178.633 15.239 178.633H14.0079L14.0074 183.857C14.0074 184.22 13.869 184.549 13.6465 184.786ZM5.6958 182.544H11.5439L11.544 178.634H5.69583L5.6958 182.544ZM3.23366 176.006H14.007L14.0073 143.923L4.54156 153.476C4.50935 153.508 4.47539 153.539 4.441 153.567L3.23384 154.786L3.23366 176.006ZM4.92685 149.46L12.3144 142.005L12.3145 128.651H4.92703L4.927 131.985H5.33708C6.01705 131.985 6.56816 132.573 6.56859 133.299C6.56858 134.025 6.01747 134.612 5.33706 134.613H4.92611L4.92685 149.46ZM6.02015 125.965H11.2223L11.2228 5.6387C11.2229 4.10866 10.0558 2.86336 8.62181 2.86337C7.92703 2.86338 7.27405 3.15231 6.78256 3.67673C6.29108 4.20114 6.02073 4.89743 6.02073 5.63875L6.02015 125.965Z" fill="black"/>
</g>
</g>
</g>
<defs>
<clipPath id="clip0">
<rect width="16.8827" height="60.0467" fill="white" transform="translate(0.178864 126.1)"/>
</clipPath>
<clipPath id="clip1">
<rect width="11.2551" height="126.098" fill="white" transform="translate(2.99266 0.0015564)"/>
</clipPath>
</defs>
</svg>
